<?xml version="1.0" encoding="utf-8"?>
<!-- Generator: Adobe Illustrator 22.1.0, SVG Export Plug-In . SVG Version: 6.00 Build 0)  -->
<svg version="1.1" id="Layer_1" xmlns="http://www.w3.org/2000/svg" xmlns:xlink="http://www.w3.org/1999/xlink" x="0px" y="0px"
	 viewBox="0 0 1440 360" style="enable-background:new 0 0 1440 360;" xml:space="preserve">
<style type="text/css">
	.st0{fill:#FDA65D;}
</style>
<path class="st0" d="M0,277.1l22,7c22,7,65,21,109-15s87-122,131-165c43-43,87-43,131-7c43,36,87,108,131,108c43,0,87-72,131-116
	c43-43,87-57,130-72c44-14,88-28,131,22c44,50,88,166,131,180c44,14,88-72,131-79c44-7,87,65,131,86c44,22,87-7,109-21l22-15v173
	h-22c-22,0-65,0-109,0s-87,0-131,0c-43,0-87,0-131,0c-43,0-87,0-131,0c-43,0-87,0-131,0c-43,0-87,0-130,0c-44,0-88,0-131,0
	c-44,0-88,0-131,0c-44,0-88,0-131,0c-44,0-87,0-131,0s-87,0-109,0H0V277.1z"/>
</svg>
