<?xml version="1.0" encoding="utf-8"?>
<!-- Generator: Adobe Illustrator 22.1.0, SVG Export Plug-In . SVG Version: 6.00 Build 0)  -->
<svg version="1.1" id="Layer_1" xmlns="http://www.w3.org/2000/svg" xmlns:xlink="http://www.w3.org/1999/xlink" x="0px" y="0px"
	 viewBox="0 0 1440 363" style="enable-background:new 0 0 1440 363;" xml:space="preserve">
<style type="text/css">
	.st0{fill:#FFFFFF;}
</style>
<path class="st0" d="M0,191.8l22-43c22-43,65-130,109-144c44-14,87,43,131,86c43,44,87,72,131,51c43-22,87-94,131-72
	c43,21,87,137,131,151c43,14,87-72,130-79c44-7,88,65,131,65c44,0,88-72,131-101c44-29,88-15,131-7c44,7,87,7,131-8
	c44-14,87-43,109-57l22-15v346h-22c-22,0-65,0-109,0s-87,0-131,0c-43,0-87,0-131,0c-43,0-87,0-131,0c-43,0-87,0-131,0
	c-43,0-87,0-130,0c-44,0-88,0-131,0c-44,0-88,0-131,0c-44,0-88,0-131,0c-44,0-87,0-131,0s-87,0-109,0H0V191.8z"/>
</svg>
